<?xml version="1.0" encoding="UTF-8"?>
<svg xmlns="http://www.w3.org/2000/svg" viewBox="0 0 500 500">
  <g id="object-0" transform="matrix(1, 0, 0, 1, -153.277847, 80.191788)">
    <path fill="#A8C0E1" opacity="1" stroke="none" d="M 489.419 442.173 C 470.654 480.733 439.889 497.087 398.855 497.001 C 298.908 496.791 198.963 497.047 99.019 496.921 C 40.461 496.846 2.409 458.011 2.518 399.682 C 2.702 300.696 2.636 201.707 2.4 102.718 C 2.251 40.274 39.23 2.515 101.797 2.441 C 200.306 2.326 298.833 3.623 397.323 2.136 C 458.587 1.21 498.513 44.688 497.767 103.625 C 496.533 201.165 497.75 298.733 497.09 396.284 C 496.986 411.253 492.355 426.192 489.419 442.173 M 384.427 451.623 C 391.116 451.606 397.808 451.703 404.497 451.557 C 433.667 450.92 451.95 432.985 451.993 403.926 C 452.151 301.175 452.111 198.421 451.907 95.67 C 451.847 66.15 433.788 47.644 404.979 47.606 C 303.663 47.477 202.347 47.469 101.031 47.776 C 63.547 47.89 47.448 64.73 47.428 102.54 C 47.376 200.513 47.382 298.486 47.408 396.457 C 47.42 435.108 63.725 451.62 101.995 451.637 C 195.187 451.678 288.382 451.634 384.427 451.623 Z"/>
    <path fill="#010202" opacity="1" stroke="none" d="M 383.001 451.623 C 288.382 451.634 195.187 451.678 101.995 451.637 C 63.725 451.62 47.42 435.108 47.408 396.457 C 47.382 298.486 47.376 200.513 47.428 102.54 C 47.448 64.73 63.547 47.89 101.031 47.776 C 202.347 47.469 303.663 47.477 404.979 47.606 C 433.788 47.644 451.847 66.15 451.907 95.67 C 452.111 198.421 452.151 301.175 451.993 403.926 C 451.95 432.985 433.667 450.92 404.497 451.557 C 397.808 451.703 391.116 451.606 383.001 451.623 M 179.324 199.449 C 179.324 193.913 179.324 188.377 179.324 182.492 C 150.125 182.492 122.696 182.492 94.829 182.492 C 94.829 191.583 94.829 199.827 94.829 209.237 C 111.901 209.237 127.919 209.237 146.047 209.237 C 130.31 239.655 116.363 268.771 100.327 296.69 C 92.335 310.599 91.457 324.164 92.978 339.04 C 122.039 339.04 150.504 339.04 179.246 339.04 C 179.246 329.909 179.246 321.498 179.246 311.374 C 161.761 311.374 144.925 311.374 126.02 311.374 C 142.919 278.78 158.78 248.471 174.287 217.984 C 176.79 213.068 177.714 207.349 179.324 199.449 M 324.221 295.416 C 343.262 295.416 362.302 295.416 381.465 295.416 C 385.796 282.996 379.663 281.848 370.584 281.897 C 325.645 282.149 280.703 282.032 235.761 282.043 C 227.336 282.046 218.911 282.043 211.091 282.043 C 207.435 292.288 209.926 295.694 219.522 295.579 C 253.461 295.175 287.409 295.419 324.221 295.416 Z"/>
    <path fill="#E3E4D9" opacity="1" stroke="none" d="M 179.346 200.726 C 177.714 207.349 176.79 213.068 174.287 217.984 C 158.78 248.471 142.919 278.78 126.02 311.374 C 144.925 311.374 161.761 311.374 179.246 311.374 C 179.246 321.498 179.246 329.909 179.246 339.04 C 150.504 339.04 122.039 339.04 92.978 339.04 C 91.457 324.164 92.335 310.599 100.327 296.69 C 116.363 268.771 130.31 239.655 146.047 209.237 C 127.919 209.237 111.901 209.237 94.829 209.237 C 94.829 199.827 94.829 191.583 94.829 182.492 C 122.696 182.492 150.125 182.492 179.324 182.492 C 179.324 188.377 179.324 193.913 179.346 200.726 Z"/>
    <path fill="#CFD0C9" opacity="1" stroke="none" d="M 322.787 295.416 C 287.409 295.419 253.461 295.175 219.522 295.579 C 209.926 295.694 207.435 292.288 211.091 282.043 C 218.911 282.043 227.336 282.046 235.761 282.043 C 280.703 282.032 325.645 282.149 370.584 281.897 C 379.663 281.848 385.796 282.996 381.465 295.416 C 362.302 295.416 343.262 295.416 322.787 295.416 Z"/>
  </g>
</svg>
